<svg width="30" height="30" viewBox="0 0 30 30" fill="none" xmlns="http://www.w3.org/2000/svg">
<path d="M20.2619 28.9904H4.31673C3.33003 28.9885 2.38446 28.6557 1.68716 28.065C0.989854 27.4743 0.597683 26.6738 0.596558 25.8389V8.04951C0.597685 7.21399 0.990442 6.41297 1.68866 5.82216C2.38689 5.23136 3.33355 4.89903 4.32099 4.89807H14.7784C15.1172 4.89813 15.4421 5.012 15.6818 5.21466L23.6079 11.9279C23.7268 12.0283 23.8211 12.1476 23.8854 12.2789C23.9497 12.4102 23.9829 12.5509 23.9829 12.693V25.8389C23.9818 26.674 23.5895 27.4746 22.892 28.0653C22.1945 28.656 21.2487 28.9887 20.2619 28.9904ZM4.31673 7.06153C4.00787 7.06268 3.7121 7.16725 3.4941 7.35239C3.2761 7.53752 3.1536 7.78817 3.15338 8.04951V25.8389C3.15382 26.1002 3.2764 26.3508 3.49435 26.5359C3.7123 26.721 4.00794 26.8256 4.31673 26.8269H20.2619C20.5714 26.8265 20.8682 26.7223 21.087 26.5371C21.3059 26.3519 21.4291 26.1008 21.4295 25.8389V13.1409L14.2449 7.06153H4.31673Z" fill="#6583A4"/>
<path d="M25.9721 24.1587H22.7079C22.3688 24.1587 22.0437 24.0447 21.8039 23.8418C21.5642 23.639 21.4295 23.3638 21.4295 23.0769C21.4295 22.79 21.5642 22.5149 21.8039 22.312C22.0437 22.1092 22.3688 21.9952 22.7079 21.9952H25.9721C26.2816 21.9948 26.5784 21.8906 26.7972 21.7054C27.0161 21.5202 27.1393 21.2691 27.1397 21.0072V3.21779C27.1393 2.95588 27.0161 2.7048 26.7972 2.5196C26.5784 2.3344 26.2816 2.23019 25.9721 2.22981H10.0269C9.71814 2.23114 9.42251 2.33577 9.20456 2.52087C8.9866 2.70597 8.86403 2.9565 8.86358 3.21779V5.97981C8.86358 6.2667 8.72889 6.54184 8.48914 6.74471C8.2494 6.94757 7.92423 7.06154 7.58517 7.06154C7.24612 7.06154 6.92095 6.94757 6.6812 6.74471C6.44145 6.54184 6.30676 6.2667 6.30676 5.97981V3.21779C6.30767 2.38221 6.70035 1.58107 7.39862 0.990225C8.09689 0.399381 9.04369 0.067109 10.0312 0.0663452H25.9721C26.9596 0.067109 27.9064 0.399381 28.6047 0.990225C29.3029 1.58107 29.6956 2.38221 29.6965 3.21779V21.0072C29.6956 21.8428 29.3029 22.6439 28.6047 23.2348C27.9064 23.8256 26.9596 24.1579 25.9721 24.1587Z" fill="#6583A4"/>
<path d="M22.7079 13.774H17.2202C16.2327 13.7731 15.2861 13.4407 14.5878 12.8499C13.8896 12.2591 13.4969 11.4581 13.4957 10.6226V5.9798C13.4957 5.69291 13.6304 5.41777 13.8702 5.2149C14.1099 5.01204 14.4351 4.89807 14.7741 4.89807C15.1132 4.89807 15.4384 5.01204 15.6781 5.2149C15.9179 5.41777 16.0525 5.69291 16.0525 5.9798V10.6233C16.0528 10.8853 16.1759 11.1365 16.3948 11.3217C16.6137 11.5069 16.9106 11.6111 17.2202 11.6113H22.7079C23.047 11.6113 23.3722 11.7253 23.6119 11.9281C23.8517 12.131 23.9863 12.4061 23.9863 12.693C23.9863 12.9799 23.8517 13.2551 23.6119 13.4579C23.3722 13.6608 23.047 13.7748 22.7079 13.7748V13.774Z" fill="#6583A4"/>
</svg>
