<?xml version="1.0" encoding="iso-8859-1"?>
<!-- Generator: Adobe Illustrator 19.0.0, SVG Export Plug-In . SVG Version: 6.00 Build 0)  -->
<svg version="1.1" id="Capa_1" xmlns="http://www.w3.org/2000/svg" xmlns:xlink="http://www.w3.org/1999/xlink" x="0px" y="0px"
	 viewBox="0 0 490.015 490.015" style="enable-background:new 0 0 490.015 490.015;" xml:space="preserve">
<g>
	<g>
		<ellipse cx="245.005" cy="245.008" rx="52.071" ry="52.102"/>
	</g>
	<g>
		<path d="M287.654,490.008h-85.292l-7.978-79.705c-10.891-2.839-21.528-6.798-31.762-11.802l-60.85,49.825l-60.103-60.148
			l47.718-58.37c-6.305-10.981-11.354-22.649-15.104-34.84L0,287.527v-85.038l74.162-7.425c3.705-12.086,8.785-23.784,15.179-34.915
			l-47.673-58.311l60.103-60.148l60.865,49.825c10.249-5.005,20.886-8.964,31.747-11.802l7.978-79.705h85.292l7.963,79.705
			c10.861,2.839,21.513,6.798,31.762,11.802l60.85-49.825l60.133,60.148l-47.688,58.311c6.394,11.13,11.474,22.828,15.179,34.915
			l74.162,7.425v85.038l-74.281,7.44c-3.75,12.191-8.815,23.874-15.104,34.855l47.733,58.355l-60.133,60.148l-60.85-49.825
			c-10.219,5.005-20.871,8.964-31.762,11.802L287.654,490.008z M216.196,474.709h57.623l7.664-76.806l5.378-1.21
			c13.102-2.958,25.861-7.679,37.932-14.044l4.497-2.36l57.922,47.419l40.532-40.547l-45.821-56.04l2.868-4.631
			c7.769-12.565,13.715-26.235,17.659-40.637l1.389-5.065l70.875-7.096v-57.369l-70.785-7.081l-1.374-5.08
			c-3.855-14.193-9.816-27.878-17.719-40.681l-2.853-4.646l45.761-55.98l-40.532-40.547l-57.922,47.419l-4.482-2.36
			c-12.131-6.379-24.89-11.1-37.948-14.044l-5.378-1.21l-7.664-76.806h-57.623l-7.679,76.806l-5.378,1.21
			c-13.043,2.943-25.801,7.679-37.932,14.044l-4.482,2.36l-57.937-47.419l-40.532,40.547l45.776,55.98l-2.854,4.646
			c-7.903,12.803-13.864,26.488-17.719,40.681l-1.374,5.08l-70.785,7.081v57.369l70.875,7.096l1.39,5.065
			c3.944,14.387,9.875,28.057,17.644,40.637l2.854,4.646l-45.806,56.025l40.532,40.547l57.922-47.419l4.497,2.36
			c12.086,6.365,24.845,11.085,37.932,14.044l5.378,1.21L216.196,474.709z M245,359.761c-63.241,0-114.679-51.483-114.679-114.754
			c0-63.271,51.438-114.754,114.679-114.754c63.241,0,114.694,51.483,114.694,114.754C359.694,308.278,308.241,359.761,245,359.761z
			 M245,145.552c-54.8,0-99.38,44.611-99.38,99.455c0,54.844,44.581,99.455,99.38,99.455c54.8,0,99.396-44.611,99.396-99.455
			C344.396,190.163,299.8,145.552,245,145.552z"/>
	</g>
</g>
<g>
</g>
<g>
</g>
<g>
</g>
<g>
</g>
<g>
</g>
<g>
</g>
<g>
</g>
<g>
</g>
<g>
</g>
<g>
</g>
<g>
</g>
<g>
</g>
<g>
</g>
<g>
</g>
<g>
</g>
</svg>
